 <svg version="1.0" xmlns="http://www.w3.org/2000/svg" width="700.000000pt" height="436.000000pt" viewBox="0 0 700.000000 436.000000" preserveAspectRatio="xMidYMid meet">
<metadata>
Created by potrace 1.12, written by Peter Selinger 2001-2015
</metadata>
<g transform="translate(0.000000,436.000000) scale(0.100000,-0.100000)" fill="#000000" stroke="none">
<path d="M1034 4206 c-37 -16 -85 -82 -114 -155 -11 -29 -20 -54 -20 -57 0 -2
48 -3 107 -2 l106 3 28 68 c15 38 39 86 53 107 13 21 22 41 19 44 -12 12 -148
5 -179 -8z"></path>
<path d="M1350 4213 c-29 -10 -82 -68 -106 -115 -112 -220 -148 -747 -74
-1088 50 -229 121 -350 206 -350 92 0 178 178 220 458 l7 43 -59 -3 c-57 -3
-59 -4 -77 -40 -20 -45 -58 -52 -81 -15 -42 67 -51 126 -51 332 0 218 12 288
60 343 l24 27 21 -21 c12 -11 27 -38 35 -60 13 -39 14 -39 70 -42 l58 -3 -7
72 c-21 206 -105 412 -186 454 -31 16 -36 17 -60 8z"></path>
<path d="M5584 4201 c-40 -24 -86 -99 -118 -193 -28 -79 -70 -303 -61 -318 4
-6 28 -10 55 -10 l49 0 28 58 c20 41 34 57 48 57 30 0 61 -73 81 -185 27 -158
7 -408 -41 -500 -23 -45 -59 -41 -85 10 -20 39 -21 40 -75 40 -54 0 -55 -1
-55 -29 0 -48 29 -184 55 -262 98 -286 246 -278 339 19 48 153 68 313 68 547
0 167 -4 236 -21 340 -37 228 -95 372 -170 422 -41 28 -57 29 -97 4z"></path>
<path d="M5788 4215 c-4 -4 6 -25 22 -47 16 -21 41 -70 55 -109 l27 -69 109 0
c60 0 109 3 109 6 0 22 -78 158 -106 185 -34 33 -39 34 -122 37 -48 2 -90 1
-94 -3z"></path>
<path d="M800 4063 c-60 -8 -72 -15 -101 -61 -30 -47 -79 -186 -79 -223 0 -17
7 -19 73 -19 l74 0 23 107 c12 59 29 125 36 147 16 44 11 54 -26 49z"></path>
<path d="M6166 4062 c-3 -5 1 -27 10 -48 9 -22 26 -86 38 -144 l22 -105 69 -3
c37 -2 72 1 76 5 11 11 -26 144 -56 203 -13 25 -34 55 -48 68 -27 25 -100 41
-111 24z"></path>
<path d="M867 3876 c-3 -8 -3 -17 0 -20 4 -3 52 -6 109 -6 99 0 114 5 114 36
0 2 -49 4 -109 4 -84 0 -110 -3 -114 -14z"></path>
<path d="M5922 3873 c3 -16 18 -18 111 -21 102 -3 107 -2 107 18 0 19 -6 20
-111 20 -100 0 -110 -2 -107 -17z"></path>
<path d="M3386 3850 c-100 -40 -159 -128 -173 -257 l-8 -68 -457 -3 -458 -2
-55 31 c-47 26 -64 31 -101 26 -24 -2 -62 -16 -84 -31 l-40 -26 -290 0 -290 0
0 -100 0 -100 879 0 c527 0 882 -4 886 -9 3 -5 19 -12 35 -16 38 -8 57 -51 65
-138 6 -75 -10 -126 -47 -146 -24 -14 -34 -13 -123 13 -183 53 -298 45 -424
-29 -68 -40 -80 -57 -62 -88 12 -18 11 -19 -11 -12 -104 35 -209 4 -305 -90
l-64 -61 -18 41 c-10 22 -44 81 -75 130 -66 104 -86 164 -86 252 0 57 2 63 21
63 23 0 59 17 59 28 0 5 -60 7 -132 5 -120 -2 -133 -4 -131 -20 2 -10 -9 -81
-23 -158 -42 -231 -54 -316 -54 -401 0 -113 14 -177 57 -264 62 -123 118 -139
349 -100 86 15 153 20 253 18 109 -2 146 1 186 15 67 23 122 69 131 110 7 30
8 27 26 -42 10 -41 31 -95 47 -120 16 -25 34 -65 40 -88 6 -23 18 -54 26 -70
8 -15 15 -34 15 -42 0 -7 22 -52 50 -100 71 -124 81 -157 87 -306 l6 -130 426
2 426 2 2 93 c5 173 10 191 83 332 42 81 79 171 98 236 17 58 38 123 46 145 8
22 15 55 16 73 0 40 16 42 25 2 7 -33 40 -60 112 -92 43 -20 63 -22 198 -20
109 1 172 -3 230 -15 117 -24 261 -23 302 1 35 22 79 97 109 186 30 91 24 255
-19 490 -20 107 -37 210 -39 228 l-3 33 -128 3 c-70 1 -130 -1 -133 -5 -7 -11
30 -29 60 -29 25 0 26 0 21 -74 -5 -92 -27 -150 -98 -263 -31 -48 -61 -102
-68 -120 l-11 -32 -53 55 c-75 76 -165 118 -243 112 -31 -3 -65 -9 -76 -13
-17 -7 -17 -6 -6 15 12 22 10 27 -21 52 -54 46 -133 80 -212 91 -59 8 -89 7
-167 -8 -52 -10 -120 -18 -150 -19 -54 -1 -55 0 -73 36 -15 31 -16 45 -7 105
16 103 24 116 79 136 45 16 119 17 900 17 l852 0 -3 98 -3 97 -285 5 -285 5
-52 28 c-67 35 -102 34 -172 -3 l-56 -30 -439 2 -439 3 -17 80 c-22 103 -31
125 -76 175 -59 65 -103 83 -214 87 -77 3 -104 -1 -144 -17z"></path>
<path d="M855 3808 c-37 -167 -33 -585 9 -790 l13 -63 98 -3 c54 -1 102 1 107
6 5 5 4 30 -2 58 -41 181 -52 495 -25 688 8 59 13 112 10 117 -4 5 -51 9 -105
9 -95 0 -100 -1 -105 -22z"></path>
<path d="M5944 3763 c27 -247 23 -537 -9 -698 -9 -44 -17 -87 -18 -95 -2 -12
16 -15 101 -17 121 -3 109 -15 138 147 23 130 24 553 2 660 l-13 65 -104 3
-104 3 7 -68z"></path>
<path d="M596 3654 c-11 -28 7 -35 85 -32 66 3 74 5 74 23 0 18 -8 20 -76 23
-65 2 -78 0 -83 -14z"></path>
<path d="M6247 3664 c-3 -4 -2 -15 4 -26 9 -16 20 -18 82 -16 64 3 72 5 72 23
0 18 -8 20 -75 23 -42 1 -79 0 -83 -4z"></path>
<path d="M498 3633 c-44 -52 -56 -242 -22 -343 16 -46 23 -55 43 -55 l24 0 0
196 c0 221 -6 247 -45 202z"></path>
<path d="M6467 3643 c-3 -4 -4 -98 -3 -208 1 -193 2 -200 21 -200 64 0 87 269
33 383 -13 27 -42 41 -51 25z"></path>
<path d="M597 3593 c-14 -14 -6 -338 11 -438 l17 -100 79 -3 78 -3 -6 28 c-12
54 -26 269 -26 396 l0 127 -73 0 c-41 0 -77 -3 -80 -7z"></path>
<path d="M6255 3588 c-2 -7 -6 -114 -9 -238 -3 -124 -9 -242 -12 -262 l-6 -38
71 0 c68 0 72 1 81 26 27 70 50 411 34 493 l-6 31 -75 0 c-50 0 -75 -4 -78
-12z"></path>
<path d="M646 2988 c16 -53 60 -131 87 -154 35 -30 114 -35 103 -7 -4 9 -16
54 -28 100 l-20 83 -75 0 c-72 0 -74 -1 -67 -22z"></path>
<path d="M6216 2998 c-2 -7 -12 -44 -23 -83 -11 -38 -22 -77 -24 -85 -3 -11 7
-16 39 -18 37 -3 47 1 73 29 35 38 64 90 74 137 l7 32 -72 0 c-48 0 -72 -4
-74 -12z"></path>
<path d="M895 2911 c-12 -21 57 -165 100 -208 l42 -43 92 0 c50 0 91 2 91 5 0
3 -12 23 -26 45 -15 22 -42 77 -60 123 l-33 82 -100 3 c-59 2 -102 -1 -106 -7z"></path>
<path d="M5902 2908 c-7 -7 -12 -17 -12 -23 0 -21 -47 -130 -75 -175 -16 -25
-27 -47 -24 -49 2 -2 42 -3 89 -2 96 2 117 12 156 70 30 46 83 173 77 184 -7
12 -198 8 -211 -5z"></path>
<path d="M180 1078 c0 -2 0 -201 0 -443 l-1 -440 98 0 98 0 3 168 2 167 345 0
345 0 0 105 0 105 -342 2 -343 3 0 65 0 65 365 2 365 2 3 101 3 100 -471 0
c-258 0 -470 -1 -470 -2z"></path>
<path d="M1190 1078 c0 -2 0 -201 0 -443 l-1 -440 98 0 98 0 3 443 2 442 -100
0 c-55 0 -100 -1 -100 -2z"></path>
<path d="M1480 980 l0 -100 198 -2 197 -3 5 -340 5 -340 97 -3 98 -3 2 343 3
343 200 2 200 1 0 99 0 98 -502 3 -503 2 0 -100z"></path>
<path d="M2562 638 l3 -443 100 0 100 0 5 294 5 293 45 -49 c25 -27 144 -161
265 -296 l220 -248 98 3 98 3 0 440 -1 440 -100 3 -100 3 0 -291 c0 -159 -3
-290 -7 -289 -5 0 -44 42 -89 92 -44 51 -161 181 -258 290 l-178 197 -104 0
-104 0 2 -442z"></path>
<path d="M3600 1078 c0 -2 0 -201 0 -443 l-1 -440 468 0 468 0 0 100 0 100
-365 5 -365 5 -3 63 -3 62 346 0 345 0 0 105 0 105 -345 0 -346 0 3 68 3 67
365 2 365 2 3 101 3 100 -471 0 c-258 0 -470 -1 -470 -2z"></path>
<path d="M4791 1069 c-55 -16 -127 -97 -147 -165 -20 -69 -15 -173 10 -221 25
-50 75 -102 120 -126 39 -21 55 -22 361 -25 282 -3 321 -5 333 -20 17 -23 15
-66 -5 -91 -18 -21 -25 -21 -403 -24 l-385 -2 0 -100 0 -100 410 0 410 0 55
30 c60 33 102 86 121 153 17 60 7 177 -19 228 -26 52 -94 111 -141 124 -20 6
-171 10 -343 10 l-308 0 -16 25 c-21 31 -11 90 16 105 13 7 154 10 402 10
l383 -1 0 98 0 98 -410 2 c-241 1 -424 -3 -444 -8z"></path>
<path d="M5939 1066 c-166 -59 -220 -288 -105 -439 14 -19 50 -47 78 -63 l53
-29 317 -3 c351 -4 343 -3 341 -70 -2 -63 4 -62 -418 -62 -210 0 -384 -2 -386
-4 -2 -2 -3 -50 -1 -105 l3 -101 388 0 c454 0 467 2 542 80 60 61 83 128 77
219 -9 116 -76 212 -167 240 -25 7 -144 11 -344 11 -342 0 -337 -1 -337 69 0
73 -11 71 423 71 l387 0 0 100 0 100 -407 0 c-309 -1 -417 -4 -444 -14z"></path>
</g>
</svg>